<svg xmlns="http://www.w3.org/2000/svg" viewBox="0 0 64 64" width="64" height="64">
  <path fill="#fff" d="M44.2 13.4c-2.1 4.6-6.6 7.7-11.6 7.9H32c-5.3 0-10-3.1-12.2-7.9v-.1h-9.1v13.3h8v24h26.7v-24h8V13.3h-9.1l-.1.1z" />
  <path fill="#666" d="M24 8c0 4.4 3.6 8 8 8s8-3.6 8-8h16c1.5 0 2.7 1.2 2.7 2.7v18.7c0 1.5-1.2 2.7-2.7 2.7h-5.3v21.3c0 1.5-1.2 2.7-2.7 2.7H16c-1.5 0-2.7-1.2-2.7-2.7V32.1L8 32c-1.5 0-2.7-1.2-2.7-2.7V10.7C5.3 9.2 6.5 8 8 8h16zm29.3 5.3h-9.1v.1c-2.1 4.6-6.6 7.7-11.6 7.9H32c-5.3 0-10-3.1-12.2-7.9v-.1h-9.1v13.3h8v24h26.7v-24h8c-.1.1-.1-13.3-.1-13.3z" />
</svg>
